<svg xmlns="http://www.w3.org/2000/svg" width="19.019" height="26.414" viewBox="0 0 19.019 26.414">
  <defs>
    <style>
      .cls-1 {
        fill: #fff;
      }
    </style>
  </defs>
  <path id="humidity" class="cls-1" d="M25.064,14.9l-7-11.153a1.1,1.1,0,0,0-1.79,0L9.234,14.949a10.551,10.551,0,0,0-1.578,5.237,9.509,9.509,0,1,0,19.019,0,10.632,10.632,0,0,0-1.61-5.29Zm-7.9,12.686a7.405,7.405,0,0,1-7.4-7.4,8.429,8.429,0,0,1,1.287-4.166l.988-1.575L22.688,25.089a7.372,7.372,0,0,1-5.523,2.494Z" transform="translate(-7.656 -3.281)"/>
</svg>
